# xmcd
# 
# Track frame offsets:
#     150
#     27975
#     48279
#     71220
#     97255
#     118568
#     145086
#     174535
#     192701
#     210000
#     225833
#     247109
#     264224
#     281775
#     300531
#     320209
# 
# Disc length: 4639
# 
# Revision: 0
# Processed by: cddbd v1.5.2PL0 Copyright (c) Steve Scherf et al.
# Submitted via: fre:ac v1.0.31
# 
DISCID=ea121d10
DTITLE=Gerry Rafferty - Baker Street
DYEAR=0
DGENRE=
TTITLE0=Baker Street
TTITLE1=Right Down The Line
TTITLE2=City To City
TTITLE3=Waiting For The Day
TTITLE4=Get It Right Next Time
TTITLE5=Take The Money And Run
TTITLE6=Days Gone Down (Still Got The Light In Your Eyes)
TTITLE7=Why Don´t You Talk To Me
TTITLE8=The Royal Mile
TTITLE9=Wastin´ Away
TTITLE10=Bring It All Home
TTITLE11=Don´t Close The Door
TTITLE12=Sleepwalking
TTITLE13=A Change Of Heart
TTITLE14=On The Way
TTITLE15=Night Owl
EXTD=
EXTT0=
EXTT1=
EXTT2=
EXTT3=
EXTT4=
EXTT5=
EXTT6=
EXTT7=
EXTT8=
EXTT9=
EXTT10=
EXTT11=
EXTT12=
EXTT13=
EXTT14=
EXTT15=
PLAYORDER=
